<svg width="173" height="55" viewBox="0 0 173 55" fill="none" xmlns="http://www.w3.org/2000/svg">
<g clip-path="url(#clip0_12_608)">
<path d="M66.7005 35.4404L80.7452 18.6445H67.5693V13.8666H88.1658V18.1743L74.0125 35.1147L88.5639 35.151V39.9653H66.7005V35.4404Z" fill="#BAFF00"/>
<path d="M91.1337 13.8666H96.2375V27.8678L102.786 21.0302L108.903 21.0338L101.921 27.9481L109.631 39.9653H103.553L98.2391 31.495L96.2375 33.4858V39.9653H91.1337V13.8666Z" fill="#BAFF00"/>
<path d="M114.952 31.1329V31.2778C114.952 32.7979 115.458 33.9924 116.472 34.8612C117.486 35.7301 118.897 36.1645 120.707 36.1644C123.989 36.1644 125.63 34.968 125.63 32.5752C125.644 32.2375 125.58 31.9012 125.442 31.5929C125.303 31.2845 125.095 31.0126 124.834 30.7985C124.594 30.5513 124.312 30.3489 124.001 30.2009C123.483 29.9904 122.95 29.8146 122.408 29.6748L116.472 27.8259C116.255 27.7537 115.881 27.6207 115.35 27.427C114.819 27.2338 113.854 26.8411 112.454 26.2491C111.054 25.6567 110.354 23.9224 110.355 21.046C110.355 18.6295 111.241 16.726 113.015 15.3358C114.789 13.9462 117.208 13.2513 120.273 13.2511C121.569 13.2296 122.864 13.3639 124.128 13.651C125.24 13.9362 126.285 14.4366 127.205 15.124C128.115 15.7605 128.85 16.6172 129.34 17.6141C129.68 18.2845 129.959 18.9842 130.173 19.7047C130.298 20.3327 130.353 20.9728 130.336 21.613H124.87C124.87 18.8382 123.222 17.4505 119.927 17.4501C118.667 17.4501 117.668 17.7403 116.929 18.3206C116.569 18.5963 116.281 18.954 116.088 19.3639C115.895 19.7739 115.804 20.224 115.82 20.6767C115.802 20.9598 115.84 21.2438 115.933 21.5117C116.027 21.7796 116.173 22.026 116.363 22.2361C116.725 22.5987 117.401 22.9128 118.39 23.1785L124.291 24.8097C124.897 24.9582 125.496 25.1399 126.083 25.3537C127.101 25.796 128.092 26.2985 129.051 26.8587C130.511 27.6688 131.241 29.4512 131.241 32.2058C131.241 34.7444 130.294 36.7567 128.399 38.2427C126.504 39.729 123.928 40.4721 120.671 40.472C117.22 40.472 114.74 39.8929 113.232 38.7345C111.724 37.5762 110.753 36.4903 110.318 35.4769C109.973 34.7261 109.701 33.9443 109.504 33.1419C109.385 32.479 109.331 31.8063 109.341 31.1329L114.952 31.1329Z" fill="#BAFF00"/>
<path d="M151.005 36.3816C149.436 39.2296 146.552 40.6534 142.353 40.6532C139.626 40.6532 137.394 39.7482 135.657 37.9383C133.919 36.1282 133.051 33.7632 133.051 30.8435C133.051 27.8514 133.944 25.3898 135.729 23.4589C137.515 21.5286 139.808 20.5633 142.607 20.563C145.382 20.563 147.65 21.468 149.412 23.278C151.173 25.0879 152.054 27.4407 152.055 30.3365L152.127 31.8931H138.082C138.082 33.5582 138.504 34.8612 139.349 35.8024C140.194 36.7435 141.34 37.2142 142.788 37.2144C144.983 37.2144 146.371 36.2128 146.951 34.2097H151.765C151.598 34.9611 151.343 35.6902 151.005 36.3816ZM138.227 28.7801H147.132C147.154 28.1627 147.052 27.5471 146.831 26.9701C146.61 26.3931 146.276 25.8665 145.847 25.4217C145.444 24.9982 144.958 24.663 144.419 24.4372C143.88 24.2115 143.3 24.1003 142.716 24.1105C142.125 24.0984 141.537 24.2069 140.99 24.4293C140.442 24.6517 139.946 24.9833 139.53 25.404C138.662 26.266 138.227 27.3914 138.227 28.7801Z" fill="#BAFF00"/>
<path d="M165.852 38.9516C164.484 39.9172 162.744 40.3998 160.633 40.3997C158.665 40.3997 157.093 39.8688 155.917 38.807C154.741 37.7452 154.154 36.3335 154.154 34.5718C154.154 31.4829 156.12 29.6006 160.054 28.9247L165.375 28.0199C166.533 27.8513 167.113 27.2119 167.113 26.1015C167.113 24.4607 165.954 23.6402 163.638 23.64C161.152 23.64 159.909 24.6415 159.909 26.6445H155.059C155.059 22.3973 157.906 20.2737 163.601 20.2736C166.353 20.2736 168.434 20.72 169.846 21.613C171.257 22.506 171.963 23.99 171.963 26.0652V36.9971C171.952 37.5049 171.977 38.0128 172.036 38.5172C172.136 39.0121 172.282 39.4967 172.47 39.9653H167.402C167.151 39.4456 167.015 38.8774 167.004 38.3V37.8296C166.812 38.0468 166.625 38.2459 166.446 38.4268C166.259 38.6142 166.061 38.7895 165.852 38.9516ZM167.004 30.4922C166.693 30.6997 166.352 30.8583 165.992 30.9626L165.446 31.0916L161.616 31.8535C160.986 31.948 160.408 32.2597 159.983 32.7346C159.561 33.2437 159.342 33.891 159.368 34.5518C159.395 35.2126 159.665 35.8402 160.127 36.3138C160.633 36.7696 161.357 36.9974 162.298 36.9972C163.77 36.9972 164.922 36.6779 165.755 36.0394C166.163 35.7309 166.489 35.328 166.707 34.8654C166.924 34.4027 167.026 33.8942 167.004 33.3835V30.4922Z" fill="#BAFF00"/>
<path d="M23.3453 15.9967C20.7652 18.0608 13.0249 25.0271 13.0249 25.0271C7.21188 29.5681 5.63543 36.2841 5.21229 39.8602C5.0162 39.4835 4.83043 39.1068 4.65757 38.7198C4.65616 38.7184 4.65526 38.7166 4.65499 38.7146C2.61409 34.2379 1.81728 29.2939 2.34837 24.4027V24.4001C2.55135 22.4756 2.96138 20.5785 3.57134 18.742V18.7394C7.47763 14.0203 11.9928 13.3598 11.9928 13.3598C25.9254 10.723 23.3453 15.9967 23.3453 15.9967Z" fill="url(#paint0_linear_12_608)"/>
<path d="M44.6003 50.178C40.549 52.8495 35.8602 54.3958 31.0144 54.6583C26.1687 54.9208 21.3403 53.8901 17.0241 51.6719H17.0215C16.6538 51.2155 16.3241 50.7296 16.0359 50.2193C14.1524 46.8652 13.4635 41.1812 20.7678 33.0719C22.0512 31.6555 23.4352 30.3336 24.9089 29.1166C27.2155 27.1944 32.079 22.9965 35.4099 19.098L35.4125 19.0954C35.6086 18.9225 35.7995 18.7497 35.9879 18.5768C38.1061 16.6262 39.2749 14.9027 39.8064 13.4037C41.7415 7.95706 35.2758 5.41823 35.2758 5.41823C32.1053 4.4379 28.8534 3.74366 25.5591 3.34382C27.6541 1.91444 35.2371 -1.98154 44.4248 8.47824C44.3268 11.6157 42.82 15.6045 38.4416 20.4654C37.1553 21.8799 35.7706 23.2016 34.2979 24.4208C31.9939 26.3429 27.1303 30.5408 23.7994 34.4393C23.6033 34.6122 23.4098 34.7876 23.2215 34.9605C21.1032 36.9111 19.9344 38.6346 19.4029 40.1336C17.4678 45.5803 23.9336 48.1191 23.9336 48.1191C32.6802 50.7895 39.7161 50.8282 44.6003 50.178Z" fill="url(#paint1_linear_12_608)"/>
<path d="M44.4248 8.47824C35.237 -1.98154 27.6541 1.91444 25.559 3.34382C22.6624 2.99113 19.7384 2.91941 16.8279 3.12967C20.8369 1.02814 25.3043 -0.0466274 29.8304 0.00155123C34.3564 0.0497298 38.8 1.21935 42.7632 3.40574C42.9825 3.52701 43.1993 3.65086 43.416 3.77986C44.1392 5.23721 44.4861 6.85245 44.4248 8.47824Z" fill="#1287B6"/>
<path d="M35.4099 19.098C32.079 22.9966 27.2155 27.1944 24.9089 29.1166C23.4352 30.3337 22.0512 31.6556 20.7678 33.0719C13.4635 41.1812 14.1524 46.8652 16.0359 50.2193C16.3241 50.7297 16.6538 51.2155 17.0215 51.6719C15.8067 51.046 14.6414 50.3284 13.5357 49.5253C13.5332 49.5227 13.528 49.5227 13.5254 49.5201C13.508 49.5096 13.4916 49.4975 13.4764 49.484L13.4738 49.4814C12.0367 46.0344 11.2962 40.8097 15.2231 34.7206C15.2231 34.7199 15.2234 34.7193 15.2239 34.7188C15.2244 34.7183 15.225 34.718 15.2257 34.718C21.1729 29.3075 29.7956 24.088 35.4099 19.098Z" fill="url(#paint2_linear_12_608)"/>
<path d="M39.8064 13.4037C39.2749 14.9027 38.1062 16.6262 35.9879 18.5768C35.7995 18.7497 35.6086 18.9225 35.4125 19.0954L35.4099 19.098C29.7956 24.0879 21.1729 29.3075 15.2257 34.718C15.225 34.718 15.2244 34.7183 15.2239 34.7187C15.2234 34.7192 15.2231 34.7199 15.2231 34.7206C11.5516 38.0618 8.89927 41.4753 8.60772 44.9507C7.9775 44.2059 7.38836 43.4273 6.84293 42.6183C7.55246 37.5303 11.949 29.5552 29.246 21.0537C29.246 21.0537 34.7597 17.3564 38.5473 14.4125C38.9963 14.0616 39.4194 13.7262 39.8064 13.4037Z" fill="#112C38"/>
<path d="M56.8868 27.3492C56.8868 27.9323 56.8687 28.5128 56.83 29.0856C56.7216 30.8728 56.4346 32.6447 55.9734 34.3748V34.3774C51.9975 39.4783 47.2165 40.1775 47.2165 40.1775C33.2839 42.8118 35.864 37.5406 35.864 37.5406C38.4441 35.4765 46.1845 28.5102 46.1845 28.5102C51.4376 24.4079 53.2308 18.5278 53.8397 14.7944C53.8784 14.864 53.9119 14.9337 53.9455 15.0034L53.948 15.0059C55.887 18.8311 56.894 23.0606 56.8868 27.3492Z" fill="url(#paint3_linear_12_608)"/>
<path d="M16.8279 3.1297C12.7826 5.25605 9.33325 8.36036 6.79389 12.1601H6.79131C6.09882 12.4547 5.42348 12.788 4.7685 13.1586C3.97125 13.623 3.59971 14.09 3.49134 14.5235C3.43838 14.5311 3.38585 14.5414 3.33396 14.5544C1.92264 14.8976 0.867371 16.7063 0.134619 18.5846C-0.430425 14.7686 0.596461 9.87411 6.83259 5.41826C6.83259 5.41826 10.4009 3.61218 16.8279 3.1297Z" fill="#169CD3"/>
<path d="M4.46923 16.3992C4.1364 17.1603 3.83452 17.9421 3.57135 18.7393V18.7419C2.96139 20.5785 2.55137 22.4756 2.34838 24.4001C1.21912 22.6341 0.465563 20.6545 0.134644 18.5845C0.867395 16.7062 1.92266 14.8976 3.33398 14.5544C3.38587 14.5414 3.43841 14.531 3.49137 14.5234C3.29528 15.313 3.95321 15.9993 4.46923 16.3992Z" fill="url(#paint4_linear_12_608)"/>
<path d="M59.0747 34.9398V34.9424C58.4426 36.8724 57.3822 38.7765 55.6122 39.3209C56.1669 38.3946 55.6406 37.4942 55.1581 36.9394C55.4703 36.1035 55.7421 35.2495 55.9734 34.3774V34.3748C56.4346 32.6447 56.7216 30.8728 56.83 29.0856C57.9731 30.8618 58.7373 32.8548 59.0747 34.9398Z" fill="url(#paint5_linear_12_608)"/>
<path d="M52.3767 48.1191C52.3767 48.1191 49.6238 49.5123 44.6003 50.178C48.1509 47.8305 51.108 44.6906 53.2385 41.0057C53.7158 40.7787 54.1209 40.5671 54.4408 40.3787C54.9135 40.1307 55.3163 39.7678 55.6122 39.3235V39.3209C57.3822 38.7765 58.4426 36.8724 59.0747 34.9424C59.6398 38.761 58.6206 43.6606 52.3767 48.1191Z" fill="#229DD5"/>
<path d="M55.9734 34.3774C55.7438 35.2495 55.472 36.1035 55.1581 36.9394C54.6314 38.3454 53.9893 39.7055 53.2385 41.0057C49.1207 42.9614 39.6258 45.9647 31.9939 42.9588C31.9939 42.9588 25.0276 41.1528 36.8961 32.8964C47.1675 25.7521 52.7999 20.1507 53.4604 14.09C53.592 14.3222 53.7184 14.557 53.8397 14.7943C53.2308 18.5278 51.4376 24.4078 46.1845 28.5102C46.1845 28.5102 39.3183 34.6898 36.364 37.1331C36.081 37.358 35.8736 37.664 35.7697 38.0101C35.6657 38.3563 35.6701 38.726 35.7824 39.0695C36.2511 40.3823 38.5087 41.8239 47.2165 40.1775C47.2165 40.1775 51.9975 39.4783 55.9734 34.3774Z" fill="url(#paint6_linear_12_608)"/>
<path d="M43.754 19.1677L43.7514 19.1702C37.7836 24.4492 29.3208 29.5371 23.7994 34.4393C27.1303 30.5408 31.9938 26.343 34.2979 24.4208C35.7706 23.2017 37.1553 21.8799 38.4415 20.4655C45.4208 12.7174 45.1034 7.18305 43.416 3.77988C43.3541 3.65604 43.2922 3.53476 43.2277 3.41608C44.0322 3.44852 44.8307 3.56879 45.6091 3.77472H45.6117C45.8961 4.41971 46.1357 5.08351 46.329 5.76141C47.312 9.2007 47.312 13.8655 43.754 19.1677Z" fill="#1A4358"/>
<path d="M50.5423 9.83798C49.8096 13.0115 47.1985 16.1205 43.754 19.1677C47.312 13.8655 47.312 9.2007 46.329 5.76141C46.1357 5.08351 45.8961 4.41971 45.6117 3.77472C47.5979 4.29726 49.3697 5.43089 50.6765 7.01534V7.01792C50.8087 7.95805 50.7632 8.91466 50.5423 9.83798Z" fill="url(#paint7_linear_12_608)"/>
<path d="M52.4645 9.90245C52.4266 10.6055 52.3273 11.304 52.1678 11.9897C51.0016 17.0881 46.089 24.5575 29.9607 32.4836C29.9607 32.4836 24.447 36.1835 20.6594 39.1274C20.2131 39.4757 19.7899 39.8137 19.4029 40.1336C19.9344 38.6346 21.1032 36.9111 23.2215 34.9605C23.4098 34.7876 23.6033 34.6122 23.7994 34.4393C29.3209 29.5371 37.7836 24.4491 43.7514 19.1702L43.754 19.1676C47.1985 16.1205 49.8095 13.0115 50.5423 9.83794C50.7632 8.91462 50.8087 7.95801 50.6765 7.01788C51.3986 7.89528 51.9999 8.86542 52.4645 9.90245Z" fill="#1C4358"/>
<path d="M31.9939 42.9589C39.6258 45.9647 49.1207 42.9614 53.2385 41.0057C51.108 44.6907 48.151 47.8305 44.6003 50.178C39.7162 50.8282 32.6802 50.7895 23.9336 48.1191C23.9336 48.1191 17.4678 45.5803 19.4029 40.1336C19.7899 39.8137 20.2131 39.4757 20.6594 39.1274C24.447 36.1835 29.9607 32.4836 29.9607 32.4836C46.089 24.5575 51.0016 17.0881 52.1678 11.9898C52.3273 11.304 52.4266 10.6056 52.4645 9.90247C52.9103 10.8899 53.2652 11.9158 53.5249 12.9676C53.5242 13.3427 53.5026 13.7173 53.4604 14.09C52.7999 20.1507 47.1675 25.7521 36.8961 32.8964C25.0276 41.1528 31.9939 42.9589 31.9939 42.9589Z" fill="url(#paint8_linear_12_608)"/>
<path d="M39.8065 13.4037C39.4194 13.7262 38.9963 14.0616 38.5474 14.4125C36.6407 15.8935 34.2979 17.568 32.4402 18.8632C30.6652 20.1052 28.8142 21.2349 26.8982 22.2457C11.5439 30.2957 7.51893 37.7677 6.84294 42.6183C7.38838 43.4272 7.97751 44.2059 8.60773 44.9507C8.56045 45.4853 8.57257 46.0236 8.64386 46.5555C7.91273 45.8555 7.26982 45.0687 6.72941 44.2128C6.33313 43.5853 5.988 42.927 5.69737 42.2442V42.2416C5.67244 41.7575 5.67847 41.2723 5.71543 40.789C6.19275 34.4058 11.8432 27.9245 22.3133 20.6409C34.1818 12.3845 27.2155 10.5784 27.2155 10.5784C20.0557 7.75838 11.2549 10.2276 6.79392 12.1601C9.33328 8.36033 12.7826 5.25601 16.828 3.12966C19.7384 2.9194 22.6624 2.99112 25.5591 3.34381C28.8534 3.74365 32.1053 4.43789 35.2758 5.41822C35.2758 5.41822 41.7415 7.95705 39.8065 13.4037Z" fill="url(#paint9_linear_12_608)"/>
<path d="M22.3133 20.6409C11.8432 27.9246 6.19275 34.4058 5.71543 40.789C5.67847 41.2723 5.67243 41.7575 5.69736 42.2416C5.48024 41.7336 5.29076 41.2143 5.12974 40.6858V40.6832C5.15038 40.4329 5.17618 40.1569 5.2123 39.8602C5.63544 36.2841 7.21189 29.5681 13.0249 25.0271C13.0249 25.0271 19.8906 18.8481 22.845 16.4046C23.1281 16.1796 23.3356 15.8734 23.4396 15.5271C23.5437 15.1807 23.5392 14.8109 23.427 14.4671C22.9583 13.1538 20.7007 11.7118 11.9928 13.3598C11.9928 13.3598 7.47764 14.0203 3.57135 18.7394C3.83452 17.9421 4.1364 17.1603 4.46923 16.3992C5.1164 14.9203 5.89347 13.5017 6.79133 12.1601H6.79391C11.2549 10.2276 20.0557 7.7584 27.2155 10.5785C27.2155 10.5785 34.1818 12.3845 22.3133 20.6409Z" fill="#01334A"/>
<path d="M13.4764 49.484L13.4841 49.5072C11.6814 48.8751 10.0322 47.8703 8.64383 46.5581V46.5556C8.57254 46.0236 8.56043 45.4854 8.60771 44.9507C8.89926 41.4753 11.5516 38.0618 15.2231 34.7206C11.2962 40.8096 12.0367 46.0344 13.4738 49.4814L13.4764 49.484Z" fill="url(#paint10_linear_12_608)"/>
</g>
<defs>
<linearGradient id="paint0_linear_12_608" x1="24.5036" y1="11.2719" x2="2.08763" y2="31.211" gradientUnits="userSpaceOnUse">
<stop offset="0.1257" stop-color="#48819B"/>
<stop offset="0.6285" stop-color="#8C8379"/>
</linearGradient>
<linearGradient id="paint1_linear_12_608" x1="44.0823" y1="3.66734" x2="24.2872" y2="54.4458" gradientUnits="userSpaceOnUse">
<stop offset="0.0866" stop-color="#E1EFF9"/>
<stop offset="0.5391" stop-color="#579FCA"/>
<stop offset="0.9804" stop-color="#F07E27"/>
</linearGradient>
<linearGradient id="paint2_linear_12_608" x1="26.8218" y1="23.5496" x2="12.8273" y2="52.901" gradientUnits="userSpaceOnUse">
<stop offset="0.1983" stop-color="#2B3B41"/>
<stop offset="0.7849" stop-color="#58360C"/>
</linearGradient>
<linearGradient id="paint3_linear_12_608" x1="59.1643" y1="16.0908" x2="36.8721" y2="49.529" gradientUnits="userSpaceOnUse">
<stop offset="0.1257" stop-color="#48819B"/>
<stop offset="0.6285" stop-color="#8C8379"/>
</linearGradient>
<linearGradient id="paint4_linear_12_608" x1="4.21932" y1="20.3026" x2="0.715349" y2="18.0353" gradientUnits="userSpaceOnUse">
<stop offset="0.1313" stop-color="#A0C44B"/>
<stop offset="0.986" stop-color="#12384E"/>
</linearGradient>
<linearGradient id="paint5_linear_12_608" x1="54.9837" y1="32.347" x2="58.0067" y2="36.8816" gradientUnits="userSpaceOnUse">
<stop offset="0.1313" stop-color="#A0C44B"/>
<stop offset="0.986" stop-color="#12384E"/>
</linearGradient>
<linearGradient id="paint6_linear_12_608" x1="47.6896" y1="20.3969" x2="38.5251" y2="53.2779" gradientUnits="userSpaceOnUse">
<stop offset="0.2318" stop-color="#5C7F8E"/>
<stop offset="0.4888" stop-color="#002C44"/>
<stop offset="0.8743" stop-color="#42362A"/>
</linearGradient>
<linearGradient id="paint7_linear_12_608" x1="41.8499" y1="9.45558" x2="54.606" y2="17.3817" gradientUnits="userSpaceOnUse">
<stop offset="0.3324" stop-color="#A0C44B"/>
<stop offset="0.986" stop-color="#12384E"/>
</linearGradient>
<linearGradient id="paint8_linear_12_608" x1="42.6316" y1="10.3157" x2="33.467" y2="54.0331" gradientUnits="userSpaceOnUse">
<stop stop-color="#2B3B41"/>
<stop offset="0.2765" stop-color="#126383"/>
<stop offset="0.5168" stop-color="#003B58"/>
<stop offset="0.9469" stop-color="#9AD0E9"/>
</linearGradient>
<linearGradient id="paint9_linear_12_608" x1="27.782" y1="3.76078" x2="16.492" y2="26.4856" gradientUnits="userSpaceOnUse">
<stop offset="0.0028" stop-color="#A1D3E9"/>
<stop offset="0.986" stop-color="#12384E"/>
</linearGradient>
<linearGradient id="paint10_linear_12_608" x1="18.8439" y1="43.9939" x2="6.95476" y2="39.0401" gradientUnits="userSpaceOnUse">
<stop offset="0.52" stop-color="#A0C44B"/>
<stop offset="0.986" stop-color="#12384E"/>
</linearGradient>
<clipPath id="clip0_12_608">
<rect width="172.47" height="54.6984" fill="white"/>
</clipPath>
</defs>
</svg>
